<svg width="70" height="62" viewBox="0 0 70 62" fill="none" xmlns="http://www.w3.org/2000/svg">
    <g clip-path="url(#clip0_18_98)">
        <path d="M3.7018 19.8796C5.5105 19.883 5.5105 19.883 7.3557 19.8864C8.3508 19.8861 8.3508 19.8861 9.366 19.8859C11.5682 19.8866 13.7704 19.8944 15.9727 19.9022C17.4958 19.9041 19.019 19.9055 20.5421 19.9065C24.5584 19.9103 28.5746 19.9202 32.5909 19.9312C36.6862 19.9414 40.7816 19.946 44.877 19.9511C52.1207 19.9608 59.3645 19.9756 66.6082 19.9938C68.026 19.9974 69.2779 20.8166 69.6061 22.1958C69.8563 23.2474 69.641 24.7173 68.5836 24.9418C68.1265 25.0388 67.4637 25.0683 66.2982 25.1201C65.0924 25.1179 63.8866 25.1157 62.6443 25.1134C61.9809 25.1136 61.3175 25.1137 60.634 25.1139C58.4318 25.1132 56.2296 25.1054 54.0273 25.0975C52.5042 25.0957 50.981 25.0943 49.4579 25.0933C45.4416 25.0894 41.4254 25.0796 37.4091 25.0686C33.3138 25.0583 29.2184 25.0538 25.123 25.0487C17.8793 25.0391 10.6355 25.0243 3.39177 25.0061C1.97402 25.0025 0.722127 24.1833 0.393932 22.8041C0.143702 21.7525 0.359019 20.2826 1.4164 20.0581C1.87352 19.961 2.53625 19.9315 3.7018 19.8796Z" fill="#E8E6E1"/>
        <path d="M27.8116 1.93051C29.1346 0.835557 30.9243 0.443368 32.5827 0.889255C33.1654 1.04589 33.748 1.23627 34.3306 1.43431C35.4347 1.80959 36.5964 1.98581 37.7622 1.95818C38.9337 1.93041 40.1039 1.87506 41.3125 1.625C42.2574 1.5348 43.2023 1.4445 44.1758 1.3516C45.4961 1.18722 46.7982 0.989799 48.0953 0.763643C50.5124 0.342204 53.969 1.93432 55.2523 4.02552C56.8809 6.67939 53.8104 9.47683 50.7814 8.75536C50.5351 8.69669 50.2918 8.60882 50.0223 8.49174C49.3328 8.19221 48.6236 7.92976 47.8816 7.80851C46.9649 7.65868 46.4081 7.60023 45.7441 7.63314C43.9342 7.72284 42.2412 8.58946 40.9498 9.86067C39.6951 11.0957 38.6121 12.3635 37.5581 13.7794C36.5184 15.1759 35.1939 16.4475 33.4536 16.3965C31.9267 16.3517 30.4367 15.3853 29.5012 14.1777C28.7772 13.2429 28.3767 12.5519 27.1875 10.5C26.5829 9.4791 25.9784 8.4581 25.3555 7.4062C24.5745 6.01991 24.9163 4.27155 26.1619 3.28152C26.2535 3.20874 26.3453 3.13574 26.4375 3.0625C27.1033 2.53042 27.4918 2.19519 27.8116 1.93051Z" fill="#E8E8E6"/>
        <path d="M17.0246 4.06992C17.9285 4.07918 18.8337 4.24498 19.6559 4.62066C22.1493 5.75998 23.0872 7.35395 24.8125 10.0001C25.4171 10.9076 26.0216 11.8151 26.6445 12.7501C27.6667 14.4469 26.3942 16.0001 24.4134 16.0001C19.0759 16.0001 13.7188 16.0001 8.25497 16.0001C6.92977 16.0001 5.77836 15.1136 5.45695 13.8279C5.1812 12.7249 5.5743 11.5473 6.46802 10.8446C7.4364 10.0832 8.4055 9.32263 9.375 8.56263C10.5932 7.60553 10.5932 7.60553 11.8359 6.62903C14.7417 4.44183 15.2598 4.05185 17.0246 4.06992Z" fill="#E7E8E5"/>
        <path d="M59.9457 9.56845C61.222 9.72723 62.1309 10.7855 62.3424 12.0541C62.685 14.1101 61.1026 15.9999 59.0183 15.9999C54.6486 15.9999 50.2667 15.9999 45.8324 15.9999C42.6934 15.9999 40.2932 12.5429 42.8752 10.7577C43.4946 10.3295 44.3964 9.97623 45.1483 9.93635C46.926 9.84207 47.3495 9.85494 50.0625 9.93739C53.7136 10.0392 56.6825 9.16248 59.9457 9.56845Z" fill="#98BBD0"/>
        <path d="M64 28C63.316 34.8396 62.5503 41.2054 61.1875 47.875C60.9584 49.1164 60.9584 49.1164 60.7246 50.3828C60.5615 51.182 60.3985 51.9812 60.2305 52.8047C60.0201 53.8716 60.0203 53.8718 59.8057 54.96C58.6458 57.8972 57.5967 59.1522 55 61C51.998 61.5783 49.0492 61.5368 46 61.4961C45.1273 61.4975 44.2546 61.4995 43.3555 61.501C41.513 61.4993 39.6705 61.4875 37.8281 61.4668C35.0098 61.4378 32.1934 61.4459 29.375 61.459C27.5833 61.4527 25.7917 61.4444 24 61.4336C22.7374 61.438 22.7374 61.4379 21.4492 61.4424C18.0264 61.3873 15.6162 61.3095 12.5283 59.7588C10.7015 57.6565 10.1629 56.141 9.55078 53.4297C9.34259 52.5325 9.13442 51.6353 8.91992 50.7109C8.71952 49.7751 8.519 48.8392 8.3125 47.875C8.1004 46.9623 7.88842 46.0497 7.66992 45.1094C6.36942 39.3495 5.6607 33.9466 5 28H64ZM48.9131 34C47.8173 34 46.9127 34.8273 46.7979 35.917C46.2558 41.0662 45.7255 46.1057 45.1963 51.1328C45.0836 52.2036 45.7923 53.1978 46.8369 53.459C48.0262 53.7562 49.2117 53.0019 49.4424 51.7979C50.4553 46.5114 51.0567 41.4585 51.0381 36.0723C51.0341 34.917 50.0683 34.0001 48.9131 34ZM35.374 33.458C34.5253 33.1751 33.4106 33.2961 33.1045 34.1367C32.9711 34.5033 32.9425 34.9905 32.8867 35.9492C32.8921 36.807 32.8971 37.64 32.9023 38.4727C32.9057 39.3989 32.9089 40.2981 32.9121 41.1973C32.9207 42.1714 32.9291 43.117 32.9375 44.0625C32.9492 46.5242 32.9618 48.9857 32.9795 51.4473C32.9889 52.7483 34.2271 53.6932 35.4893 53.3779C36.3845 53.1541 37 52.3525 37 51.4297V35.7021C36.9999 34.6856 36.3384 33.7795 35.374 33.458ZM20.9238 34.585C19.3048 34.2613 17.9288 35.488 17.9619 37.1387C18.0608 42.0332 18.8609 46.7699 19.748 51.6279C19.9006 52.4632 20.5435 53.1357 21.3672 53.3418C22.7203 53.6801 24.0223 52.6662 24.0166 51.2715C23.9966 46.462 23.7185 41.7403 23.2158 36.9473C23.0939 35.7855 22.0693 34.8141 20.9238 34.585Z" fill="#EEEFEC"/>
    </g>
    <defs>
        <clipPath id="clip0_18_98">
            <rect width="70" height="61.52" fill="white"/>
        </clipPath>
    </defs>
</svg>
