<svg width="18" height="25" viewBox="0 0 18 25" fill="none" xmlns="http://www.w3.org/2000/svg">
    <path d="M9 0C13.9688 0 18 3.95645 18 8.84082C17.9999 14.4328 12.3659 21.1356 10.0127 23.6904C9.45957 24.2904 8.54043 24.2904 7.9873 23.6904C5.6341 21.1356 0.000130992 14.4328 0 8.84082C0 3.95645 4.03125 0 9 0ZM9.9502 13C9.42552 13 9 13.4255 9 13.9502C9.00011 14.4748 9.42559 14.9004 9.9502 14.9004C10.4747 14.9003 10.9003 14.4747 10.9004 13.9502C10.9004 13.4256 10.4748 13.0001 9.9502 13ZM7.5 10C6.67157 10 6 10.6716 6 11.5C6 12.3284 6.67157 13 7.5 13C8.32843 13 9 12.3284 9 11.5C9 10.6716 8.32843 10 7.5 10ZM8.81055 4C7.96775 4 7.20605 4.57666 7.20605 5.37305C7.2061 5.47566 7.25063 5.57392 7.3291 5.64648C7.4076 5.71902 7.51403 5.75977 7.625 5.75977C7.73594 5.75971 7.84245 5.71903 7.9209 5.64648C7.99928 5.57394 8.04293 5.4756 8.04297 5.37305C8.04297 5.07989 8.34394 4.77441 8.81055 4.77441C9.27683 4.77454 9.57693 5.07958 9.57715 5.37207C9.57715 5.5331 9.51467 5.6732 9.41309 5.77539C9.35007 5.83881 9.2809 5.90243 9.20117 5.97461L9.15625 6.01562C9.06195 6.10179 8.95729 6.1995 8.86133 6.30371C8.71342 6.46474 8.55275 6.6768 8.49414 6.93848C8.13814 6.99225 7.79937 7.11921 7.50391 7.31055L3.54395 9.8877C3.02603 10.2242 2.89247 10.7665 3.08105 11.2207C3.26632 11.6671 3.7477 11.9999 4.36816 12H5V11.2256H4.36816C4.0884 11.2255 3.92196 11.0851 3.86328 10.9434C3.80691 10.8087 3.83232 10.6459 4.02539 10.5205L7.98535 7.94434C8.2526 7.77404 8.56901 7.68158 8.89355 7.67969C9.22151 7.67412 9.54392 7.76123 9.81738 7.92871L13.9658 10.5146C14.1651 10.6385 14.1928 10.8032 14.1387 10.9395C14.0806 11.0829 13.9149 11.2256 13.6309 11.2256H13V12H13.6309C14.2587 12 14.7424 11.6611 14.9238 11.209C15.108 10.7492 14.9645 10.2034 14.4346 9.87305L10.2852 7.28711C10.0133 7.11797 9.70691 7.00174 9.38477 6.94629C9.41917 6.89679 9.45737 6.84917 9.49902 6.80469C9.57751 6.72195 9.65974 6.64211 9.74512 6.56543L9.78613 6.52832C9.86483 6.45606 9.95116 6.3778 10.0293 6.29883C10.2759 6.05112 10.414 5.72395 10.4141 5.37305C10.4141 4.57675 9.65323 4.00013 8.81055 4ZM9.7998 9C9.35813 9.00011 9.00011 9.35813 9 9.7998C9 10.2416 9.35807 10.5995 9.7998 10.5996C10.2416 10.5996 10.5996 10.2416 10.5996 9.7998C10.5995 9.35807 10.2416 9 9.7998 9Z" fill="#2D6289"/>
</svg>
