<svg width="12" height="11" viewBox="0 0 12 11" fill="none" xmlns="http://www.w3.org/2000/svg">
    <path fill-rule="evenodd" clip-rule="evenodd" d="M6.81771 3.92877C6.54419 3.76119 6.22205 3.67443 5.89399 3.68C5.56929 3.68181 5.2527 3.77389 4.98533 3.94426L1.02531 6.52026C0.832188 6.64568 0.807072 6.80826 0.863444 6.94297C0.922049 7.0849 1.08838 7.22581 1.36856 7.22581H2V8H1.36856C0.747908 8 0.266789 7.6671 0.0814858 7.22064C-0.107167 6.76645 0.0256714 6.224 0.543628 5.88748L4.50365 3.31097C4.79921 3.1195 5.13765 2.99212 5.4938 2.93832C5.5524 2.67664 5.71315 2.46452 5.86106 2.30348C5.95706 2.19923 6.06199 2.10168 6.15631 2.01548L6.20097 1.97419C6.28078 1.90194 6.34999 1.83845 6.41306 1.77497C6.51464 1.67277 6.57715 1.53342 6.57715 1.37239C6.57715 1.07974 6.27687 0.774194 5.81027 0.774194C5.34366 0.774194 5.04338 1.07974 5.04338 1.3729C5.04338 1.47557 4.99927 1.57403 4.92077 1.64662C4.84227 1.71922 4.73579 1.76 4.62477 1.76C4.51375 1.76 4.40727 1.71922 4.32877 1.64662C4.25027 1.57403 4.20616 1.47557 4.20616 1.3729C4.20616 0.576516 4.96747 0 5.81027 0C6.65306 0 7.41437 0.576516 7.41437 1.3729C7.41437 1.72387 7.27595 2.0511 7.02925 2.29884C6.95111 2.37781 6.86516 2.45626 6.78646 2.52852L6.74516 2.56568C6.65969 2.64244 6.57757 2.72233 6.49901 2.80516C6.45728 2.84972 6.41905 2.89698 6.38459 2.94658C6.70688 3.00204 7.01347 3.11798 7.28544 3.28723L11.4341 5.87303C11.9644 6.20335 12.1078 6.7489 11.9236 7.20877C11.7422 7.6609 11.2589 8 10.6309 8H10V7.22581H10.6309C10.915 7.22581 11.0808 7.08284 11.1389 6.93935C11.193 6.8031 11.1651 6.63897 10.9658 6.5151L6.81771 3.92877Z" fill="#2D6289"/>
    <circle cx="4.5" cy="7.5" r="1.5" fill="#2D6289"/>
    <circle cx="6.95" cy="9.95" r="0.95" fill="#2D6289"/>
    <circle cx="6.8" cy="5.8" r="0.8" fill="#2D6289"/>
</svg>
