<svg width="24" height="24" viewBox="0 0 24 24" fill="none" xmlns="http://www.w3.org/2000/svg">
    <path opacity="0.5" d="M3 10C3 6.229 3 4.343 4.172 3.172C5.344 2.001 7.229 2 11 2H13C16.771 2 18.657 2 19.828 3.172C20.999 4.344 21 6.229 21 10V14C21 17.771 21 19.657 19.828 20.828C18.656 21.999 16.771 22 13 22H11C7.229 22 5.343 22 4.172 20.828C3.001 19.656 3 17.771 3 14V10Z" stroke="black" stroke-width="1.5"/>
    <path d="M17 14C17 15.3261 16.4732 16.5979 15.5355 17.5355C14.5979 18.4732 13.3261 19 12 19C10.6739 19 9.40215 18.4732 8.46447 17.5355C7.52678 16.5979 7 15.3261 7 14C7 12.6739 7.52678 11.4021 8.46447 10.4645C9.40215 9.52678 10.6739 9 12 9C13.3261 9 14.5979 9.52678 15.5355 10.4645C16.4732 11.4021 17 12.6739 17 14Z" stroke="black" stroke-width="1.5"/>
    <path d="M7.99989 6H15.9999M7.23389 14.362C8.08889 14.79 9.06689 15.521 10.7239 15.819C13.0859 16.245 12.8499 14.171 15.2119 14.596C15.9319 14.726 16.4179 14.946 16.7619 15.181" stroke="black" stroke-width="1.5" stroke-linecap="round"/>
</svg>
